<svg xmlns="http://www.w3.org/2000/svg" width="225.005" height="83.599" viewBox="0 0 225.005 83.599"><g id="Grupo_74" data-name="Grupo 74" transform="translate(-1247 331.187)"> <rect id="Rectángulo_120" data-name="Rectángulo 120" width="16.818" height="6.551" transform="translate(1324.172 -313.425)" fill="#929696"></rect><rect id="Rectángulo_121" data-name="Rectángulo 121" width="29.417" height="6.551" transform="translate(1311.572 -298.603)" fill="#929696"></rect> <rect id="Rectángulo_122" data-name="Rectángulo 122" width="58.834" height="6.551" transform="translate(1282.157 -283.782)" fill="#929696"></rect> <rect id="Rectángulo_123" data-name="Rectángulo 123" width="70.718" height="6.551" transform="translate(1270.271 -268.96)" fill="#929696"></rect> <rect id="Rectángulo_124" data-name="Rectángulo 124" width="93.989" height="6.551" transform="translate(1247 -254.139)" fill="#929696"></rect> <path id="Trazado_147" data-name="Trazado 147" d="M91.27,12.257a12.247,12.247,0,0,1,23.158-5.571l-5.253,2.66a6.359,6.359,0,0,0-11.97,2.905,6.359,6.359,0,0,0,11.97,2.905l5.253,2.66A12.247,12.247,0,0,1,91.27,12.257" transform="translate(1262.22 -331.186)" fill="#929696"></path> <path id="Trazado_148" data-name="Trazado 148" d="M114.462,12.255a12.236,12.236,0,1,1,3.583,8.673,12.254,12.254,0,0,1-3.583-8.673m18.543,0a6.307,6.307,0,1,0-6.307,6.308,6.306,6.306,0,0,0,6.307-6.308" transform="translate(1266.089 -331.184)" fill="#929696"></path> <path id="Trazado_149" data-name="Trazado 149" d="M158.578,17.542c0,4.37-3.184,6.6-7.243,6.6h-11.5V.273H150.42c4.1,0,7.36,2.386,7.36,6.726a5.253,5.253,0,0,1-2.7,5.014,5.572,5.572,0,0,1,3.5,5.529m-8.915-11.97h-3.739V9.79h3.739a2.136,2.136,0,0,0,2.029-2.109,2.107,2.107,0,0,0-2.029-2.109M152.5,16.747a2.115,2.115,0,0,0-2.069-2.109h-4.5v4.22h4.5a2.09,2.09,0,0,0,2.069-2.109" transform="translate(1270.317 -331.139)" fill="#929696"></path><path id="Trazado_150" data-name="Trazado 150" d="M179.818,24.148h-6.84l-5.571-8.755h-1.393v8.755h-6.08V.273h10.623a7.3,7.3,0,0,1,7.322,7.52,7.115,7.115,0,0,1-4.655,6.884Zm-7.8-16.115a2.383,2.383,0,0,0-2.47-2.47h-3.542V10.5h3.551a2.383,2.383,0,0,0,2.47-2.47" transform="translate(1273.678 -331.139)" fill="#929696"></path><path id="Trazado_151" data-name="Trazado 151" d="M186.17,5.564V9.583h7.362v5.253H186.17v4.02h8.715v5.291h-14.8V.273h14.8V5.564Z" transform="translate(1277.032 -331.139)" fill="#929696"></path><path id="Trazado_152" data-name="Trazado 152" d="M91.379,30.682h5.033a9.209,9.209,0,1,1,0,18.417H91.379Zm5,16.452a7.244,7.244,0,1,0,0-14.488H93.319V47.134Z" transform="translate(1262.239 -326.069)" fill="#929696"></path><path id="Trazado_153" data-name="Trazado 153" d="M108.406,32.584v6.353h7.06v1.9h-7.06v6.353h8.1v1.9H106.44V30.682h10.07v1.9Z" transform="translate(1264.75 -326.069)" fill="#929696"></path> <path id="Trazado_154" data-name="Trazado 154" d="M126.894,47.134V49.1h-8.81V30.682h1.965V47.134Z" transform="translate(1266.693 -326.069)" fill="#929696"></path> <path id="Trazado_155" data-name="Trazado 155" d="M151.451,30.682V49.1h-1.934V34.609L143.11,49.1h-1.628l-6.352-14.55V49.1h-1.965V30.682h2.09l7.06,16.053L149.4,30.682Z" transform="translate(1269.212 -326.069)" fill="#929696"></path><path id="Trazado_156" data-name="Trazado 156" d="M162.123,44.8h-8.193l-1.5,4.3h-2.149l6.659-18.416h2.181L165.777,49.1H163.62Zm-.646-1.873-3.437-9.914-3.469,9.914Z" transform="translate(1272.062 -326.069)" fill="#929696"></path><path id="Trazado_157" data-name="Trazado 157" d="M171.515,40.35v8.74H169.55V40.38l-6.45-9.7h2.455l4.972,7.643,4.972-7.643h2.424Z" transform="translate(1274.199 -326.07)" fill="#929696"></path><path id="Trazado_158" data-name="Trazado 158" d="M176.639,39.926a9.454,9.454,0,1,1,9.453,9.452,9.454,9.454,0,0,1-9.453-9.452m16.942,0a7.44,7.44,0,1,0-2.179,5.309,7.49,7.49,0,0,0,2.179-5.309" transform="translate(1276.458 -326.106)" fill="#929696"></path></g></svg>