<?xml version="1.0" standalone="no"?>
<!DOCTYPE svg PUBLIC "-//W3C//DTD SVG 20010904//EN"
 "http://www.w3.org/TR/2001/REC-SVG-20010904/DTD/svg10.dtd">
<svg version="1.0" xmlns="http://www.w3.org/2000/svg"
 width="300.000000pt" height="300.000000pt" viewBox="0 0 300.000000 300.000000"
 preserveAspectRatio="xMidYMid meet">
<metadata>
Created by potrace 1.14, written by Peter Selinger 2001-2017
</metadata>
<g transform="translate(0.000000,300.000000) scale(0.100000,-0.100000)"
fill="#000000" stroke="none">
<path d="M2467 2468 c1 -46 2 -93 3 -105 l0 -23 265 0 265 0 0 105 0 105 -267
0 -268 0 2 -82z"/>
<path d="M2069 2076 c-5 -2 -4 -206 1 -207 3 0 213 -2 468 -2 l463 -2 -3 105
-3 105 -462 1 c-255 0 -464 0 -464 0z"/>
<path d="M1131 1600 c-4 -3 -7 -50 -6 -105 l0 -100 938 -2 938 -2 -3 106 -3
106 -928 1 c-511 1 -932 -1 -936 -4z"/>
<path d="M749 1127 c-1 -1 -3 -48 -3 -104 l-2 -103 31 0 c41 -1 2174 -1 2203
0 21 0 22 3 22 104 l0 105 -1125 -1 c-619 0 -1126 0 -1126 -1z"/>
<path d="M4 651 c-2 -2 -4 -48 -4 -102 0 -69 4 -98 12 -101 7 -2 681 -3 1498
-3 l1485 1 0 104 0 105 -1493 0 c-822 0 -1496 -2 -1498 -4z"/>
</g>
</svg>
